<svg xmlns="http://www.w3.org/2000/svg" xmlns:xlink="http://www.w3.org/1999/xlink" version="1.1" x="0px" y="0px" viewBox="0 0 100 125" enable-background="new 0 0 100 100" xml:space="preserve">
  <path fill="blue" d="M39.3,96.6l-15.4-0.1c-0.7,0-1.3-0.6-1.3-1.3l-0.3-8.1L7.7,69.5c-2.2-2.3-3.6-4.9-4.1-8l-0.1-0.9L1,35.9  c-0.1-1.2,0.3-2.5,1.2-3.2c1.1-0.9,2.9-1.3,4.3,0.3c1,1.1,1.4,4.5,1.6,5.4c0.5,3.2,1.1,7.9,1.2,11.1c0,0.2,0,0.5,0,0.7  c0.1,1.4,0.4,2.7,1,4c3.3,7.2,9.9,16.2,9.9,16.2l0.4,0.5c0.3,0.4,0.8,0.5,1.3,0.3c0.5-0.3,0.6-0.9,0.4-1.3l-8.7-14.3  c-0.9-1.6-0.4-3.8,1.3-4.9c1.7-1.1,4-0.5,4.9,1.1l9.1,11.7c0.6,0.8,1.7,1.9,2.5,2.4c8.2,5.9,9.3,11.9,10,14.9c0,0,0.1,0.7,0.1,1.7h0  l0,0c0,0.8,0,1.8-0.2,2.9l-0.5,9.8C40.6,96,40,96.6,39.3,96.6z M10.2,34.7c0.3,0.9,0.4,1.7,0.6,2.6c0.5,2.8,1.2,7.8,1.2,10.5  c0,0.3,0,0.5,0,0.8c0.3-0.3,0.6-0.5,1-0.7c0.4-0.3,0.9-0.5,1.4-0.6c0,0,0-0.1,0.1-0.1c-0.3-2.5-1.2-7.4-1.9-9.9  C12.2,36,11.5,35.1,10.2,34.7z M15.1,38.2c0.4,1.9,1.5,5.2,1.7,7l0.2,1.2c0,0.1,0,0.2,0,0.4c0.7,0,1.5,0.2,2.2,0.4  c-0.2-1.7-1.3-4.9-1.8-6.5C17.1,39.5,16.3,38.6,15.1,38.2z M93.5,32.9c-1,1.1-1.4,4.5-1.6,5.4c-0.5,3.2-1.1,7.9-1.2,11.1  c0,0.2,0,0.5,0,0.7c-0.1,1.4-0.4,2.7-1,4c-3.3,7.2-9.9,16.2-9.9,16.2l-0.4,0.5c-0.3,0.4-0.8,0.5-1.3,0.3c-0.5-0.3-0.6-0.9-0.4-1.3  l8.7-14.3c0.9-1.6,0.4-3.8-1.3-4.9c-1.7-1.1-4-0.5-4.9,1.1l-9.1,11.7c-0.6,0.8-1.7,1.9-2.5,2.4c-8.2,5.9-9.3,11.9-10,14.9  c0,0-0.1,0.7-0.1,1.7v0c0,0.8,0,1.8,0.2,2.9l0.5,9.8c0,0.7,0.6,1.3,1.3,1.3l15.4-0.1c0.7,0,1.3-0.6,1.3-1.3l0.3-8.1l14.6-17.6  c2.2-2.3,3.6-4.9,4.1-8l0.1-0.9L99,35.9c0.1-1.2-0.3-2.5-1.2-3.2C96.6,31.8,94.8,31.4,93.5,32.9z M85.6,47.1  C85.6,47.1,85.6,47.2,85.6,47.1c0.5,0.3,1,0.5,1.4,0.7c0.4,0.2,0.7,0.5,1,0.7c0-0.3,0-0.5,0-0.8c0.1-2.7,0.7-7.7,1.2-10.5  c0.1-0.8,0.3-1.7,0.6-2.6c-1.3,0.4-2,1.3-2.3,2.6C86.8,39.7,85.9,44.6,85.6,47.1z M80.9,47.3c0.7-0.3,1.4-0.4,2.2-0.4  c0-0.1,0-0.2,0-0.4l0.2-1.2c0.2-1.8,1.3-5.2,1.7-7c-1.2,0.4-2,1.3-2.3,2.6C82.2,42.3,81.1,45.6,80.9,47.3z M78.6,45.3  c0-1.2-1-2.2-2.2-2.2H24.3c-1.2,0-2.2,1-2.2,2.2s1,2.2,2.2,2.2h52.1C77.6,47.5,78.6,46.5,78.6,45.3z M70.8,53.2c0-1.2-1-2.2-2.2-2.2  H28.1c-1.2,0-2.2,1-2.2,2.2s1,2.2,2.2,2.2h40.5C69.8,55.4,70.8,54.4,70.8,53.2z M35.4,58.9c-1.2,0-2.2,1-2.2,2.2s1,2.2,2.2,2.2h26  c1.2,0,2.2-1,2.2-2.2s-1-2.2-2.2-2.2H35.4z M66.
<text x="0" y="115" fill="blue" font-size="5px" font-weight="bold" font-family="'Helvetica Neue', Helvetica, Arial-Unicode, Arial, Sans-serif">Created by Gregor Cresnar</text><text x="0" y="120" fill="blue" font-size="5px" font-weight="bold" font-family="'Helvetica Neue', Helvetica, Arial-Unicode, Arial, Sans-serif">from the Noun Project</text></svg>